<svg viewBox="0 0 32 32" xmlns="http://www.w3.org/2000/svg">
  <path style="fill:#000;fill-rule:evenodd;stroke:#000;stroke-width:0;stroke-miterlimit:4;stroke-dasharray:none" d="M16.06 15.28a4.36 4.17 0 0 0-3.96 2.43 4.36 4.17 0 0 0-.01.02l.03.07-.07.04a4.36 4.17 0 0 0 .34 3.82l.2.08-.06.12a4.36 4.17 0 0 0 1.73 1.37 4.36 4.17 0 0 0 4.74-.7l.04-.22.17.03a4.36 4.17 0 0 0 .83-1.17 4.36 4.17 0 0 0 .13-3.15l-.18-.08.07-.17a4.36 4.17 0 0 0-2.18-2.12 4.36 4.17 0 0 0-1.82-.37zm0 .33a4.01 3.83 0 0 1 1.67.34 4.01 3.83 0 0 1 .13.06l.17-.04.01.14a4.01 3.83 0 0 1 1.98 2.68l-.22.08-.46-.08-.23.2-.23-.03-.06.06h.08l.19.04.24-.17-.02.16.07.11.01-.1v-.16l.4.07h.26a4.01 3.83 0 0 1-.33 2.06 4.01 3.83 0 0 1-1.48 1.62l-.08.18-.13-.06a4.01 3.83 0 0 1-1.24.43l.02-.17-.03-.13.03-.07-.02-.06-.02.06-.06-.05-.04-.15v.17l.07.06.02.17-.07.2a4.01 3.83 0 0 1-2.29-.3 4.01 3.83 0 0 1-2.33-3.23l.7-.16.17-.14.2.18.13.14.05-.04.05-.12-.1.08-.35-.35-.24.16-.63-.03a4.01 3.83 0 0 1 .36-1.57 4.01 3.83 0 0 1 .5-.77v-.05h.04a4.01 3.83 0 0 1 2.43-1.36l.25.24.16.17-.04.2-.12.21-.2.4-.17.35.12.19-.02-.2.19-.37s.16-.28.22-.42c.05-.14.18 0 .18 0l-.03.36-.2.13.05.08.22.15-.16-.18.15-.13.03-.42-.08-.4-.16-.1s-.13-.1-.2-.29a4.01 3.83 0 0 1 .5-.03zm7.14 3.25-.02.1.01.1h.07l.14-.01H23.47l-.02.03-.06.1v.07h-.03l-.08.14v.12l.07.09.02-.02v.04l.1.17.04.05-.06.1-.12.17-.03.02-.02.02-.03.04-.07.1.11.15.06-.05.09-.17.14-.2.08-.12.01-.14-.06-.07-.06-.1-.1-.12-.01-.04.02-.04v-.05l.2-.3-.01-.16h-.31l-.02.03-.02-.03h-.02l-.08-.02zm-14.45 0-.02.02-.07.09-.01.06-.03-.01-.07.08-.04.03-.03.04.04.1.04.07.1-.12.05-.04v.32l.03.03-.03.02v.33l-.02.41v.12h.1l.07-.02v-.13l-.03-.02.02-.02-.01-.52.01-.58v-.2l-.1-.05zm14 0-.09.18-.04.08v.04l-.04.03-.07.14v.13l.03.03.02.03.08.09.07.08.04.02.07-.15-.05-.05-.04-.05v-.01l-.07-.08.02-.04.02-.05.03-.05.08-.14.01.02.08.13h.03v.03l.03.06.02.02-.03.07-.03.07-.05.16.01.04-.04.04-.08.2v.02l-.02.02-.02.1-.1.2-.02.07.15.1.07-.22v-.05l.04-.06.03-.1.07-.2.02-.05.03-.09.05-.1.07-.18v-.12l-.18-.26-.08-.14H22.75zm-13.54.01-.1.17-.03.08v.04l-.05.03-.07.14v.13l.03.03.02.03.09.09.06.08.04.02.08-.15-.05-.05-.05-.05v-.01l-.06-.08.01-.04.02-.05.04-.05.07-.14.02.02.08.13h.02v.03l.04.06.01.02-.03.08-.03.06-.05.16.02.04-.05.04-.08.2v.02l-.01.02-.03.1-.09.2-.02.07.15.1.07-.22v-.05l.04-.06.03-.1.06-.2.02-.05.04-.09.04-.1.08-.18v-.12L9.4 19l-.08-.14H9.2zm12.3.2-.12.06-.03.07-.06-.03-.28.12-.04.5.43.3.18-.08.07-.16.16.06.08-.04.04-.5-.43-.3zm-10.85.03-.46.27.01.5.14.08.07-.02.02.06.24.13.46-.26-.02-.51-.17-.1-.1.04-.04-.1-.15-.09z"/>
  <path style="fill:#000;fill-rule:evenodd;stroke:#000;stroke-width:0;stroke-miterlimit:4;stroke-dasharray:none;stroke-opacity:1" d="M16.18 19.43a1.22 1.17 0 0 0-.74.24v.1h-.11a1.22 1.17 0 0 0-.37.82 1.22 1.17 0 0 0 1.22 1.17 1.22 1.17 0 0 0 .13 0l.03-.07.1.04a1.22 1.17 0 0 0 .96-1.14 1.22 1.17 0 0 0-.56-.98l-.2.08-.1-.2a1.22 1.17 0 0 0-.36-.06zm-.06.34.1.4a.49.49 0 0 0-.03 0 .49.49 0 0 0-.12.01zm.34.03-.06.42a.49.49 0 0 0-.14-.05zm-.66.04.25.35a.49.49 0 0 0-.14.07zm.96.11-.21.37a.49.49 0 0 0-.12-.09zm-1.24.08.38.24a.49.49 0 0 0-.11.11zm1.46.17-.34.27a.49.49 0 0 0-.08-.13zm-1.64.1.44.1a.49.49 0 0 0-.06.13zm1.3.2h.45l-.41.14a.49.49 0 0 0-.03-.15zm-.92.05a.49.49 0 0 0-.02.1.49.49 0 0 0 0 .05l-.43-.09zm.96.11.4.16-.43-.01a.49.49 0 0 0 .03-.15zm-.97.06a.49.49 0 0 0 .04.14l-.43.07zm.93.12.3.28-.37-.16a.49.49 0 0 0 .07-.12zm-.88.05a.49.49 0 0 0 .09.12l-.36.2zm.78.1.17.36-.28-.27a.49.49 0 0 0 .1-.08zm-.66.04a.49.49 0 0 0 .12.08l-.25.3zm.5.08.03.38-.16-.35a.49.49 0 0 0 .13-.03zm-.33.02a.49.49 0 0 0 .14.02l-.12.36z"/>
  <g style="font-weight:700;font-size:6.95595px;line-height:1.25;font-family:Norse;-inkscape-font-specification:'Norse, Bold';stroke-width:.0206692">
    <path style="font-size:6.95595px;stroke-width:.0129155" d="m16.11 1.9-8.3 14.53.1.33-.34.1L.58 29.1H9.8l.54-.41.31.4 21-.01-2.98-5.2-.23-.01.03-.34-8.94-15.65-.3-.01.03-.46-3.15-5.5zm0 1.15 3.78 6.6.3.07-.06.35 10.44 18.28h-3.5l-.32.23-.17-.23H1.66l.65-1.14-.07-.27.27-.08L12.77 8.9l.06-.6.26.04 3.03-5.3zm.14 8.81-.07.16-.05.68.01.13-.04.09-.04.3-.02.46-.05.55.04.05-.07.07-.03.2-.02.21.24.25.28.03.15-.06.35-.13v.03l.02.23.44-.03-.03-.33.02-.5.11-.94v-.12l-.05-.05.05-.07.01-.05.04-.24.06-.27-.04-.05.05-.02.04-.23v-.2l-.21-.03-.22-.02-.04.3-.04.54-.04.35-.03.52-.07.53-.04.27-.38.12-.15.04-.04-.01-.04-.05v-.06l.02-.5.09-.5.02-.3.01-.17.01-.14.05-.16-.03-.1v-.07l.06-.15.03-.13.04-.38-.4-.05zm-2.39.32-.13.07-.22.06.16.43h.07l-.03.09.4 1.33.17.68.07.1-.03.08.09.28.2-.04.17-.09.05.02.18-.05.06-.02.33-.07.04-.1-.06-.26-.04-.08-.2.06-.08.05-.32.1-.04-.12-.1-.28-.1-.28-.08-.25-.06-.04.02-.08-.06-.2-.1-.46-.13-.46-.02-.14-.07-.27-.14-.06zm5.74.44-.13.2-.02.04V12.95l-.07.03-.1.19-.1.18-.21.32.03.08-.1.02-.66.99-.06.09-.05.07-.02.1-.14.11-.06.16.37.2.1-.15.33-.54.3-.53.07-.05.32-.5.17-.24-.02.2v.07l-.01.03-.02.23.1.06.15.06.14-.1.1-.06.03-.04.11-.04.07-.04-.07.15-.53.77-.1.17.02.07-.08.03-.25.4-.18.21-.1.17.06.1.33.17.12-.24.07-.12.1-.21.17-.22.72-1.18v-.08l.09-.05.37-.52-.07-.1-.17-.15-.4.2v.08l-.07-.01-.26.13-.13.06.02-.48.04-.43-.15-.07-.17-.08zm-8 .58-.1.1-.2.12.3.37.07-.02v.1l.81 1.14.38.6.1.07v.1l.17.23.17-.1.14-.13h.05l.16-.1.05-.04.3-.16v-.1l-.14-.24-.06-.06-.17.11-.07.08-.27.19-.07-.1-.2-.24.01-.01-.18-.24-.16-.2-.07-.03v-.08l-.13-.18-.25-.4-.26-.4-.07-.13-.16-.23-.15-.02zm-1.35 1.16-.2.2-.13.16.19.12.04-.02.04.08.68.54.1.05.18.16.1.1.63.52.12.1h.09l.03.1.26.3.14-.15.06-.07.08-.18-.12-.1-.07-.05-.06-.04-.93-.76-.05.01-.05-.09-.09-.06-.14-.1-.17-.14-.43-.38-.07-.08-.23-.22zm11.96.23-.16.15.01.04-.08.02-.7.54-.06.09-.2.13-.11.08-.65.5-.13.09-.02.08-.1.02-.36.19.13.15.05.07.17.11.13-.1.07-.05.04-.05.97-.73-.01-.05.1-.03.08-.07.12-.12.19-.12.46-.34.1-.05.27-.18-.17-.23-.14-.14zm-1.56 7.62-.1.02-.2.07.1.2.03.15.1.3.03.16.1.26.08.28v.03l-.13-.11-.08-.03-.01-.04-.12-.11-.17-.1-.26-.23-.09-.07-.04-.06-.21-.15-.1.11-.05.07-.02-.03-.37.19-.18.1a2.68 2.74 10.03 0 1-.17.07c-.03.01-.06.06-.08.07h-.1l-.36.15-.03.01-.16.04-.04.14.07.17.1.4.11.4.01.12-.04.03-.07.06-.16.13-.03.05h-.07l-.17.1v.01l-.15-.41-.05-.3-.06-.02.03-.1-.04-.28-.06-.32-.38.05-.09.1.03.07-.08-.07-.05-.03-.18-.09-.2.3.02.05-.22.31-.04.13-.3.54-.08.17-.02.03-.07.05v.34l.24.32.14.17.12.2.24.39.17.23.06.1.06.12.42-.07-.02-.2-.04-.07.04-.03-.04-1.12-.01-.03.04-.32-.07-.14-.38.04.02.38.02.05.01.04.02.72v.02l-.18-.32-.07.01v-.14l-.3-.42-.08-.13.05-.1.1-.2.15-.3.31-.5v-.07l.15-.14.07-.15.05.12v.1l.09.28.1.26.08.44.15.5.1.6.08.28.08.05-.05.1.06.3.28-.04.17-.06-.03-.16-.06-.2-.09-.22v-.02l-.16-.77.3-.23.25-.12.01.08.03.05.15.68.09.06-.04.05.09.5.1.14.24-.07.16-.04-.07-.24-.05-.1-.15-.57-.2-.78-.02-.09-.06-.2-.08-.41-.07-.12.03-.07-.04-.17-.01-.1.14-.06a.3.31 10.03 0 0 .06-.05v-.03l.1-.03.1.16.1.27.11.19.36.84.23.6.06.02.05.29.14.32.23-.07.11-.07.09-.12-.17-.28-.34-.78-.08-.05v-.01l-.07-.27-.15-.31-.03-.07-.05-.1a2.2 2.25 10.03 0 1-.07-.16l-.13-.31-.06-.08-.05-.19.12-.06.13-.05h.05l.15-.07h.02l.09-.01.05.13.18.13.14.1v-.01l.39.27.22.18.16.15.1.17.34.47.07.02.01.12.1.2.13.22.29-.18.05-.15-.18-.23-.1-.16-.06-.06-.17-.28h-.07l-.03-.14-.08-.1-.01-.06-.08-.1-.1-.38-.13-.53-.06-.2-.02-.16-.01-.07h-.06l.06-.1-.08-.34h-.17zm-8.5.28-.13.2-.22.42-.1.24-.5.8v.1l-.1.1-.34.54-.04.07-.01.04-.2.3.14.13.23.13.15-.25.02-.06.24-.4.05-.18.1-.13.52-.89-.01-.08.13-.12.13-.21.01.2.03.32.04.2v.12l.02.09v.14l-.23.41-.03.08-.02.02-.23.37-.2.38-.19.3.13.09.21.12.13-.1.1-.24.08-.12.46-.88.03-.16.13-.14.6-.95.16-.26-.15-.12-.22-.13-.18.31v.08l-.1.1-.2.34v-.29l-.02-.03v-.21l-.08-.7-.35-.09zm1.55.96-.13.25-.1.17-.09.16.03.08-.1.07-.33.53-.02.08-.06.08-.04.08-.26.5-.03.08-.06.03-.13.26-.3.49.12.14.25.12.15-.28v-.13l.06-.03.15-.29h.14l.3.02.1-.03h.01l.07.01v.04l-.02.15.03.04-.05.03-.02.13-.13.56.05.06.06.02h.35l.01-.2-.04-.09.04-.02.05-.29.03-.43.02-.06.15-1.11-.04-.05.05-.07.1-.7v-.1l.05-.14-.07-.06-.35-.1zm.84.27-.08.16-.07.73v.14l-.04.09-.05.32-.03.5-.07.58.03.06-.07.07-.04.21-.03.23.24.27.28.04.15-.06.36-.13v.28l.44-.02-.02-.36.05-.53.14-1v-.13l-.04-.05.05-.07.01-.07.04-.24.07-.3-.03-.05.05-.02.04-.24v-.22l-.2-.03-.22-.03-.05.32-.06.57-.04.38-.05.55-.09.57-.06.29-.38.1-.15.04h-.04l-.04-.05v-.07l.04-.53.1-.53.04-.34.02-.16.01-.16.06-.16-.03-.1v-.1l.07-.15.03-.14.06-.4-.4-.06zm-.86.46-.09.48-.01.08-.06.23-.07.5-.13-.01-.3-.01.01-.03.15-.26.19-.4v-.08h.05l.26-.5z" aria-label="ILLUMI"/>
  </g>
</svg>
